<?xml version="1.0" encoding="UTF-8"?>
<svg xmlns="http://www.w3.org/2000/svg" width="3.75in" height="2.25in" viewBox="0 0 3.75 2.25">
  <rect width="3.75" height="2.25" fill="#F6F0E4"/>
  <g transform="translate(0.125,0.125)">
    <line x1="0.35" y1="0.40" x2="1.55" y2="0.40" stroke="#E891AE" stroke-width="0.012"/>
    <line x1="1.95" y1="0.40" x2="3.15" y2="0.40" stroke="#E891AE" stroke-width="0.012"/>
    <path d="M1.75,0.40 l0.02,0.04 -0.044,0.007 0.032,0.03 -0.008,0.044 0.038,-0.02 0.038,0.02 -0.008,-0.044 0.032,-0.03 -0.044,-0.007z" fill="#E891AE"/>
    <text x="1.75" y="1.05" text-anchor="middle" font-family="Segoe Script, Brush Script MT, cursive" font-size="0.42" fill="#4A2318">Homemade in NJ</text>
    <text x="1.75" y="1.40" text-anchor="middle" font-family="Segoe UI, Arial, sans-serif" font-size="0.16" fill="#4A2318">Not your average dough!</text>
    <line x1="0.35" y1="1.60" x2="1.55" y2="1.60" stroke="#E891AE" stroke-width="0.012"/>
    <line x1="1.95" y1="1.60" x2="3.15" y2="1.60" stroke="#E891AE" stroke-width="0.012"/>
    <path d="M1.75,1.60 l0.02,0.04 -0.044,0.007 0.032,0.03 -0.008,0.044 0.038,-0.02 0.038,0.02 -0.008,-0.044 0.032,-0.03 -0.044,-0.007z" fill="#E891AE"/>
  </g>
</svg>
